<svg xmlns="http://www.w3.org/2000/svg" width="50" height="50" viewBox="0 0 50 50">
  <g id="Group_392" data-name="Group 392" transform="translate(12657 12363)">
    <rect id="Mask" width="50" height="50" rx="25" transform="translate(-12657 -12363)" fill="#fff" opacity="0"/>
    <g id="Group_379" data-name="Group 379">
      <path id="Path" d="M6.15,25a18.871,18.871,0,0,0,11.4,17.321q1.01-1.351,1.336-1.839A17.241,17.241,0,0,0,25,46.15,21.15,21.15,0,0,1,3.853,25.35l0-.35Z" transform="translate(-12657 -12363)"/>
      <path id="Path-Copy" d="M27.15,4a18.789,18.789,0,0,0,5.4,13.208,18.885,18.885,0,0,0,6,4.112q1.01-1.351,1.336-1.839A17.241,17.241,0,0,0,46,25.15,21.15,21.15,0,0,1,24.853,4.35l0-.35Z" transform="translate(-12586.15 -12333.85) rotate(180)"/>
      <g id="Group-10" transform="translate(-12645 -12346)">
        <g id="Group-11">
          <path id="Rectangle" d="M9.634.58a1.71,1.71,0,0,1,1.709,1.669h0l-.512,3.4A4,4,0,0,1,7.165,9.012h0L6.1,9.088A4.481,4.481,0,0,1,1.346,5.259h0L1.078,3.406A2.473,2.473,0,0,1,3.134.611h0Z" fill="none" stroke="#000" stroke-width="1.16" fill-rule="evenodd"/>
          <path id="Rectangle-Copy" d="M23.318-.58a1.7,1.7,0,0,0,1.209-.5,1.7,1.7,0,0,0,.5-1.168h0l-.512-3.4a3.992,3.992,0,0,0-1.247-2.32,3.992,3.992,0,0,0-2.419-1.041h0l-1.067-.076a4.469,4.469,0,0,0-3.129.98A4.469,4.469,0,0,0,15.03-5.259h0l-.268,1.853a2.465,2.465,0,0,0,.467,1.834,2.465,2.465,0,0,0,1.589.961h0Z" transform="translate(39.684) rotate(180)" fill="none" stroke="#000" stroke-width="1.16" fill-rule="evenodd"/>
          <line id="Path-6" x2="2.737" transform="translate(11.632 2.667)" fill="none" stroke="#000" stroke-width="1.526"/>
        </g>
        <path id="Path-15" d="M1.4,2.667A3.362,3.362,0,0,1,4.442,4.6l.347.737h0" fill="none" stroke="#000" stroke-linecap="round" stroke-width="1.45" fill-rule="evenodd"/>
        <path id="Path-15-2" data-name="Path-15" d="M21.243-2.667A3.362,3.362,0,0,0,24.285-4.6l.347-.737h0" transform="translate(45.875) rotate(180)" fill="none" stroke="#000" stroke-linecap="round" stroke-width="1.45" fill-rule="evenodd"/>
      </g>
      <path id="_3D" data-name="3D" d="M19.471,38.256a4.855,4.855,0,0,0,2.087-.4,2.9,2.9,0,0,0,1.267-1.073,2.718,2.718,0,0,0,.416-1.462A2.455,2.455,0,0,0,22.6,33.6a3.063,3.063,0,0,0-1.833-.89h0l2.054-2.34V29h-6.37v1.69h3.874l-1.872,2.119V34.2h.962q1.7,0,1.7,1.118a.982.982,0,0,1-.455.864,2.215,2.215,0,0,1-1.248.306,4.634,4.634,0,0,1-1.4-.215,3.968,3.968,0,0,1-1.2-.6h0L16,37.281A4.872,4.872,0,0,0,17.58,38,7.158,7.158,0,0,0,19.471,38.256Zm8.987-.156a5.81,5.81,0,0,0,2.619-.565,4.234,4.234,0,0,0,1.768-1.592,4.853,4.853,0,0,0,0-4.784,4.234,4.234,0,0,0-1.768-1.593A5.81,5.81,0,0,0,28.458,29H24.324v9.1Zm-.1-1.729H26.43V30.729h1.924a3.058,3.058,0,0,1,2.177.76,3.019,3.019,0,0,1,0,4.121,3.058,3.058,0,0,1-2.177.76Z" transform="translate(-12657 -12363)" fill="#202020"/>
    </g>
  </g>
</svg>
