<svg xmlns="http://www.w3.org/2000/svg" width="49.999" height="49.999" viewBox="0 0 49.999 49.999">
  <g id="Group_396" data-name="Group 396" transform="translate(12424.982 12363.277)">
    <g id="Group_391" data-name="Group 391" transform="translate(-12424.982 -12363.277)">
      <rect id="Mask" width="50" height="50" rx="25" fill="#fff" opacity="0"/>
      <path id="Subtraction_10" data-name="Subtraction 10" d="M12.088,26.239A13.279,13.279,0,0,1,.681,19.811l-.346-.567A30.467,30.467,0,0,0,12.089,21.7a30.434,30.434,0,0,0,11.685-2.427l-.281.538-.159.261a13.281,13.281,0,0,1-11.247,6.168ZM24.178,7.969h0a30.774,30.774,0,0,0-11.421-2.59c-.3-.01-.6-.015-.89-.015a26.539,26.539,0,0,0-6.7.858A33.437,33.437,0,0,0,0,7.967l.238-.739a13.347,13.347,0,0,1,18.9-5.222,13.216,13.216,0,0,1,4.8,5.222l.242.666,0,.073Z" transform="translate(12.91 11.882)" stroke="rgba(0,0,0,0)" stroke-miterlimit="10" stroke-width="1"/>
      <g id="Group_385" data-name="Group 385" transform="translate(11.64 16.837)">
        <path id="Path" d="M13.361,0A31.4,31.4,0,0,0,.7,2.769,1.17,1.17,0,0,0,.008,3.7L0,3.842v9.273a1.17,1.17,0,0,0,.7,1.072q.4.175.8.338L3.815,12.1a1.962,1.962,0,0,1,2.734-.072l.073.072,2.762,2.934L16.821,5.8a1.82,1.82,0,0,1,2.79-.075l6.651,7.923.184.221a1.169,1.169,0,0,0,.267-.616l.008-.138V3.842a1.17,1.17,0,0,0-.7-1.072A31.4,31.4,0,0,0,13.361,0Z" transform="translate(0 0.007)" fill="none" stroke="#000" stroke-miterlimit="10" stroke-width="1"/>
        <path id="Path-2" data-name="Path" d="M13.36,15.148A31.4,31.4,0,0,1,.7,12.379a1.17,1.17,0,0,1-.694-.934L0,11.307V2.034A1.17,1.17,0,0,1,.7.962a28.335,28.335,0,0,1,25.743.318,1.169,1.169,0,0,1,.267.616l.008.138v9.272a1.17,1.17,0,0,1-.7,1.072A31.4,31.4,0,0,1,13.36,15.148Z" transform="translate(0 2.006)" fill="none" stroke="#000" stroke-miterlimit="10" stroke-width="1"/>
        <g id="Oval" transform="translate(2.632 3.191)" fill="none" stroke="#000" stroke-miterlimit="10" stroke-width="1">
          <ellipse cx="2.926" cy="2.888" rx="2.926" ry="2.888" stroke="none"/>
          <ellipse cx="2.926" cy="2.888" rx="2.426" ry="2.388" fill="none"/>
        </g>
      </g>
    </g>
  </g>
</svg>
