<svg xmlns="http://www.w3.org/2000/svg" width="50" height="50" viewBox="0 0 50 50">
  <g id="Group_395" data-name="Group 395" transform="translate(12483 12362.518)">
    <rect id="Mask" width="50" height="50" rx="25" transform="translate(-12483 -12362.518)" fill="#fff" opacity="0"/>
    <g id="Group_381" data-name="Group 381">
      <path id="Path" d="M18,9A9,9,0,0,0,0,9" transform="translate(-12467 -12346.518)" fill="none" stroke="#000" stroke-miterlimit="10" stroke-width="1.4"/>
      <path id="Path-2" data-name="Path" d="M0,9A9,9,0,1,0,9,0" transform="translate(-12467 -12346.518)" fill="none" stroke="#000" stroke-miterlimit="10" stroke-width="1.4"/>
      <path id="Path-3" data-name="Path" d="M1.392.043l.094.083L6.45,5.09a1,1,0,0,1-1.32,1.5L5.036,6.5.072,1.54C-.319,1.15,1-.262,1.392.043Z" transform="translate(-12452.965 -12331.351)"/>
      <path id="Path_17" data-name="Path 17" d="M.5,0V6" transform="translate(-12455 -12338.018) rotate(90)" fill="none" stroke="#000" stroke-linecap="round" stroke-miterlimit="10" stroke-width="2"/>
    </g>
  </g>
</svg>
