<svg xmlns="http://www.w3.org/2000/svg" width="50" height="50" viewBox="0 0 50 50">
  <g id="Group_394" data-name="Group 394" transform="translate(12541 12363)">
    <rect id="Mask" width="50" height="50" rx="25" transform="translate(-12541 -12363)" fill="#fff" opacity="0"/>
    <g id="Group_380" data-name="Group 380">
      <path id="Path" d="M0,11.231q.129.425.3.832A9,9,0,1,0,12.046.3q-.4-.167-.829-.3" transform="translate(-12524.614 -12346.618)" fill="none" stroke="#000" stroke-linecap="round" stroke-miterlimit="10" stroke-width="1.4"/>
      <path id="Path-2" data-name="Path" d="M7.539,0A9,9,0,0,0,0,8.882" transform="translate(-12525 -12346.882)" fill="none" stroke="#000" stroke-linecap="round" stroke-miterlimit="10" stroke-width="1.4"/>
      <path id="Path_8" data-name="Path 8" d="M0,2.476-4,0V5Z" transform="translate(-12515.818 -12350) rotate(-17)"/>
      <path id="Path_17" data-name="Path 17" d="M.5,0V8" transform="translate(-12516.5 -12342)" fill="none" stroke="#000" stroke-linecap="round" stroke-miterlimit="10" stroke-width="2"/>
      <path id="Path-3" data-name="Path" d="M1.392.043l.094.083L6.45,5.09a1,1,0,0,1-1.32,1.5L5.036,6.5.072,1.54C-.319,1.15,1-.262,1.392.043Z" transform="translate(-12510.965 -12331.833)"/>
      <path id="Path_17-2" data-name="Path 17" d="M.5,0V8" transform="translate(-12512 -12338.5) rotate(90)" fill="none" stroke="#000" stroke-linecap="round" stroke-miterlimit="10" stroke-width="2"/>
    </g>
  </g>
</svg>
