<svg xmlns="http://www.w3.org/2000/svg" width="50" height="50" viewBox="0 0 50 50">
  <g id="Group_393" data-name="Group 393" transform="translate(12599 12363)">
    <rect id="Mask" width="50" height="50" rx="25" transform="translate(-12599 -12363)" fill="#fff" opacity="0"/>
    <g id="Group_378" data-name="Group 378">
      <g id="Rectangle" transform="translate(-12586.771 -12342.109)" fill="none" stroke-miterlimit="10">
        <path d="M.494,3.041A2.674,2.674,0,0,1,3.142,0H9.768A2.005,2.005,0,0,1,11.75,2.308l-.613,4.016A4.01,4.01,0,0,1,7.468,9.717l-1.4.1A4.9,4.9,0,0,1,.85,5.6Z" stroke="none"/>
        <path d="M 3.14234447479248 1.19999885559082 C 2.709774017333984 1.19999885559082 2.315104484558105 1.379668235778809 2.031044006347656 1.70590877532959 C 1.746984481811523 2.032138347625732 1.623324394226074 2.447768688201904 1.682834625244141 2.876238346099854 L 2.038874626159668 5.439708709716797 C 2.291814804077148 7.260898590087891 3.867154121398926 8.634248733520508 5.703254222869873 8.634248733520508 C 5.79505443572998 8.634248733520508 5.888284206390381 8.63079833984375 5.980334281921387 8.624008178710938 L 7.379584312438965 8.520678520202637 C 8.694374084472656 8.423578262329102 9.751654624938965 7.445558547973633 9.95069408416748 6.142298698425293 L 10.56398391723633 2.126688480377197 C 10.61256408691406 1.808609008789062 10.4688549041748 1.585338592529297 10.37886428833008 1.480558395385742 C 10.28886413574219 1.375778198242188 10.08985424041748 1.19999885559082 9.768064498901367 1.19999885559082 L 3.14234447479248 1.19999885559082 M 3.14234447479248 -1.9073486328125e-06 L 9.768064498901367 -1.9073486328125e-06 C 10.99610424041748 -1.9073486328125e-06 11.93563461303711 1.093908309936523 11.75022411346436 2.307868480682373 L 11.13694477081299 6.323468208312988 C 10.85466480255127 8.171758651733398 9.33259391784668 9.579718589782715 7.467964172363281 9.717418670654297 L 6.068704605102539 9.820748329162598 C 3.489690780639648 10.01119899749756 1.206033706665039 8.166228294372559 0.8502845764160156 5.604788780212402 L 0.4942445755004883 3.041318416595459 C 0.2709941864013672 1.433959007263184 1.519564628601074 -1.9073486328125e-06 3.14234447479248 -1.9073486328125e-06 Z" stroke="none" fill="#000"/>
      </g>
      <g id="Rectangle_Copy" data-name="Rectangle Copy" transform="translate(-12559.181 -12342.109)" fill="none" stroke-miterlimit="10">
        <path d="M-2.542,3.041A2.674,2.674,0,0,0-5.191,0h-6.626A2.005,2.005,0,0,0-13.8,2.308l.613,4.016A4.01,4.01,0,0,0-9.516,9.717l1.4.1A4.9,4.9,0,0,0-2.9,5.6Z" stroke="none"/>
        <path d="M -11.81627464294434 1.19999885559082 C -12.13806438446045 1.19999885559082 -12.33707427978516 1.375778198242188 -12.42707443237305 1.480558395385742 C -12.51706504821777 1.585338592529297 -12.66077423095703 1.808609008789062 -12.61218452453613 2.12669849395752 L -11.99890518188477 6.142298698425293 C -11.79986476898193 7.445558547973633 -10.74258422851562 8.423578262329102 -9.427804946899414 8.520678520202637 L -8.02857494354248 8.624008178710938 C -7.936494827270508 8.63079833984375 -7.843264579772949 8.634248733520508 -7.75146484375 8.634248733520508 C -5.915364265441895 8.634248733520508 -4.340024948120117 7.260898590087891 -4.087084770202637 5.439708709716797 L -3.731044769287109 2.876228332519531 C -3.671534538269043 2.447768688201904 -3.795194625854492 2.032138347625732 -4.079254150390625 1.70590877532959 C -4.363314628601074 1.379668235778809 -4.757984161376953 1.19999885559082 -5.190554618835449 1.19999885559082 L -11.81627464294434 1.19999885559082 M -11.81627464294434 -1.9073486328125e-06 L -5.190554618835449 -1.9073486328125e-06 C -3.567774772644043 -1.9073486328125e-06 -2.319204330444336 1.433959007263184 -2.542454719543457 3.041318416595459 L -2.898494720458984 5.604788780212402 C -3.254244804382324 8.166229248046875 -5.537912368774414 10.01119804382324 -8.116914749145508 9.820748329162598 L -9.51617431640625 9.717418670654297 C -11.38080406188965 9.579718589782715 -12.90287399291992 8.171758651733398 -13.18515396118164 6.323468208312988 L -13.79843425750732 2.307868480682373 C -13.98384475708008 1.093908309936523 -13.04431438446045 -1.9073486328125e-06 -11.81627464294434 -1.9073486328125e-06 Z" stroke="none" fill="#000"/>
      </g>
      <path id="Path_6" data-name="Path 6" d="M0,.4H2.674" transform="translate(-12575.337 -12339.8)" fill="none" stroke="#000" stroke-miterlimit="10" stroke-width="1.579"/>
      <path id="Path_15" data-name="Path 15" d="M0,0H0A3.23,3.23,0,0,1,2.943,1.9l.367.811" transform="translate(-12585.33 -12339.4)" fill="none" stroke="#000" stroke-linecap="round" stroke-miterlimit="10" stroke-width="1.5"/>
      <path id="Path_15-2" data-name="Path 15" d="M-.6,0h0A3.23,3.23,0,0,0-3.542,1.9l-.367.811" transform="translate(-12562.038 -12339.4)" fill="none" stroke="#000" stroke-linecap="round" stroke-miterlimit="10" stroke-width="1.5"/>
      <path id="focus-add" d="M4,13.5c.828,0,1-.672,1-1.5V7.5A2.259,2.259,0,0,1,7.5,5H12c.828,0,1.5-.172,1.5-1S12.828,3,12,3H7.5A4.5,4.5,0,0,0,3,7.5V12C3,12.828,3.172,13.5,4,13.5Z" transform="translate(-12592 -12356)"/>
      <path id="focus-add-2" data-name="focus-add" d="M12.5,13.5c-.828,0-1-.672-1-1.5V7.5A2.259,2.259,0,0,0,9,5H4.5C3.672,5,3,4.828,3,4s.672-1,1.5-1H9a4.5,4.5,0,0,1,4.5,4.5V12C13.5,12.828,13.328,13.5,12.5,13.5Z" transform="translate(-12572.5 -12356)"/>
      <path id="focus-add-3" data-name="focus-add" d="M12.5,3c-.828,0-1,.672-1,1.5V9A2.259,2.259,0,0,1,9,11.5H4.5c-.828,0-1.5.172-1.5,1s.672,1,1.5,1H9A4.5,4.5,0,0,0,13.5,9V4.5C13.5,3.672,13.328,3,12.5,3Z" transform="translate(-12572.5 -12336.5)"/>
      <path id="focus-add-4" data-name="focus-add" d="M4,3c.828,0,1,.672,1,1.5V9a2.259,2.259,0,0,0,2.5,2.5H12c.828,0,1.5.172,1.5,1s-.672,1-1.5,1H7.5A4.5,4.5,0,0,1,3,9V4.5C3,3.672,3.172,3,4,3Z" transform="translate(-12592 -12336.5)"/>
    </g>
  </g>
</svg>
