<?xml version="1.0" encoding="UTF-8"?>
<svg width="40px" height="40px" viewBox="0 0 40 40" version="1.1" xmlns="http://www.w3.org/2000/svg" xmlns:xlink="http://www.w3.org/1999/xlink">
    <title>switch-hotspot</title>
    <g id="switch-hotspot" stroke="none" stroke-width="1" fill="none" fill-rule="evenodd">
        <g transform="translate(6.000000, 11.000000)" fill="#000000" fill-rule="nonzero">
            <path d="M3.56138531,5.47999893 L3.42196959,5.61376798 C2.16294912,6.8499719 1.38028169,8.58227934 1.38028169,10.5 C1.38028169,14.2555363 4.38186562,17.3 8.08450704,17.3 L8.08450704,17.3 L17.7611622,17.2993274 C17.720967,17.5268286 17.7,17.7609658 17.7,18 C17.7,18.2388353 17.7209321,18.4727816 17.7611622,18.7001045 L8.08450704,18.7001045 C3.61955709,18.7001045 0,15.0287349 0,10.5 C0,7.97743998 1.12301263,5.72092067 2.88960703,4.21672193 C3.03656319,4.68081596 3.26648679,5.10729077 3.56138531,5.47999893 Z M19.915493,2.3 C24.3804429,2.3 28,5.97126505 28,10.5 C28,12.8753659 27.0042217,15.0148328 25.412972,16.5123751 C25.2343625,16.0640447 24.9763862,15.6566197 24.6569565,15.306188 C25.8695257,14.0773074 26.6197183,12.3775137 26.6197183,10.5 C26.6197183,6.7444637 23.6181344,3.7 19.915493,3.7 L19.915493,3.7 L10.6389382,3.70010446 C10.6790679,3.47278157 10.7,3.23883526 10.7,3 C10.7,2.76076469 10.6789977,2.52643473 10.6387364,2.2987533 L19.915493,2.3 Z" id="Combined-Shape"></path>
            <polygon id="Path" points="9.7 8.98395656 9.7 11.9079411 15.6919835 11.9076093 15.6915538 13.8918977 19.1375027 10.4459488 15.6915538 7 15.6919835 8.98329845"></polygon>
            <circle id="Oval" cx="6.7" cy="3" r="3"></circle>
            <circle id="Oval-Copy" cx="21.7" cy="18" r="3"></circle>
        </g>
    </g>
</svg>