<?xml version="1.0" encoding="UTF-8"?>
<svg width="40px" height="40px" viewBox="0 0 40 40" version="1.1" xmlns="http://www.w3.org/2000/svg" xmlns:xlink="http://www.w3.org/1999/xlink">
    <title>vto</title>
    <g id="vto" stroke="none" stroke-width="1" fill="none" fill-rule="evenodd">
        <g transform="translate(0.000000, 6.000000)">
            <g id="Group-14" transform="translate(23.000000, 3.000000)">
                <g id="Group-5" transform="translate(8.500000, 11.500000) scale(-1, 1) translate(-8.500000, -11.500000) " stroke="#202020">
                    <path d="M15.2624732,14.8587892 C15.5451116,15.0472344 15.6864308,15.2099826 15.6864308,15.3470338 C15.6864308,15.5526104 15.8397649,15.7623626 15.5617374,16.2207347 C15.4145733,16.4633577 15.123622,16.7203286 14.6888835,16.9916472 C14.572503,18.2765015 14.5143128,18.9189286 14.5143128,18.9189286 C14.5143128,18.9189286 14.5392514,19.4328703 14.1152939,19.664144 C13.8326555,19.8183266 13.4086979,20.0410346 12.8434211,20.3322683 C12.6106601,20.4350566 12.1783896,20.3750967 11.5466096,20.1523887 C10.5989397,19.8183266 4.83810425,17.375751 4.38920798,16.759021 C3.94031171,16.1422909 3.56623149,15.424125 3.56623149,13.1370845" id="Path-7" stroke-width="1.16583089" stroke-linecap="round"></path>
                    <path d="M9.35200565,19.2529907 C8.00531683,18.9960198 7.04933403,19.4500017 6.48405725,20.6149362 C6.22818258,21.357079 5.95340134,22.1521003 5.65971353,23" id="Path-9" stroke-width="1.16583089" stroke-linecap="round"></path>
                    <path d="M15.5715493,11.0984329 C15.2556594,11.0813016 14.973021,11.2440498 14.7236342,11.5866776" id="Path-10" stroke-width="0.5" stroke-linecap="round"></path>
                    <g id="Group-4" transform="translate(12.765099, 6.216329) rotate(4.000000) translate(-12.765099, -6.216329) translate(12.019318, 4.945720)" stroke-width="0.5">
                        <path d="M1.36863485,0 C0.7913875,0.436850445 0.335175882,0.864204141 0,1.28206109 C0.223450588,1.56696355 0.536680431,1.85186602 1.31875749,2.0228075 C1.17211804,2.38703574 1.1691254,2.2842474 0.972608587,2.54121825" id="Path-11" stroke-linecap="round" stroke-linejoin="round"></path>
                        <path d="M0.837939706,0.455843942 C1.24759912,0.968668378 1.24759912,1.43400907 0.837939706,1.85186602" id="Path-12"></path>
                    </g>
                    <path d="M4.35731573,7.55190807 C4.35731573,6.74662516 3.01758049,4.35679625 0.692840447,6.38480719 C-1.30596426,8.71900896 1.55898915,12.5635766 2.52507809,12.5635766 C2.87003881,12.6600914 3.19206846,12.5685541 3.49116703,12.2889646" id="Path-13" stroke-width="0.896792995" stroke-linecap="round"></path>
                    <path d="M14.963209,4.52856098 C14.6805706,5.26521075 14.5392514,5.77058675 14.5392514,6.04468899 C14.5392514,6.45584235 15.9358176,8.71718583 16.2600205,9.23112754 C16.5842233,9.74506924 17.3573225,10.3874964 16.8086715,11.1584089 C16.4429041,11.6723506 16.0472679,11.9293215 15.6217628,11.9293215 C15.8810101,12.6659712 16.0937626,13.1028217 16.2600205,13.2398728 C16.5094073,13.4454495 15.3871666,14.9872746 14.6639449,15.11576" id="Path-5" stroke-width="1.16583089" stroke-linecap="round"></path>
                    <path d="M3.10899982,8.74288292 C3.34752144,8.95427025 3.36369119,9.20793504 3.15750907,9.5038773 C2.84823589,9.94779068 2.74514482,9.94779068 3.15750907,10.4551203" id="Path-14" stroke-width="1.16583089" stroke-linecap="round"></path>
                    <path d="M14.963209,4.52856098 C15.3921918,3.92549326 15.2508726,2.41597293 14.5392514,0" id="Path-3" stroke-width="1.16583089" stroke-linecap="round"></path>
                </g>
                <g id="Group-12" transform="translate(1.163240, 2.171874)">
                    <path d="M0.724215891,2.12802005 L13.6770039,3.03167223 C13.919059,3.04164957 14.334772,3.21734141 14.3250938,3.46687807 C14.3193585,3.61475164 14.1732654,3.68463566 13.8868142,3.67653012 L0.689168014,3.03167223 C0.447112907,3.02169489 0.258734207,2.81131722 0.268412411,2.56178056 C0.274147643,2.41390699 0.426082136,2.26932015 0.724215891,2.12802005 Z" id="Path-6" fill="#202020" fill-rule="nonzero"></path>
                    <path d="M0.278056475,0.0192175882 C-0.0957400169,3.02317576 0.204986709,5.37413601 1.18023665,7.07209833 C1.57307695,6.20428802 1.27235022,3.85332777 0.278056475,0.0192175882 Z" id="Path-8" stroke="#202020" stroke-width="0.538075797" stroke-linejoin="round" transform="translate(0.734907, 3.545658) rotate(-2.000000) translate(-0.734907, -3.545658) "></path>
                </g>
            </g>
            <g id="Group-5" transform="translate(0.000000, 3.000000)" stroke="#202020">
                <path d="M15.2624732,14.8587892 C15.5451116,15.0472344 15.6864308,15.2099826 15.6864308,15.3470338 C15.6864308,15.5526104 15.8397649,15.7623626 15.5617374,16.2207347 C15.4145733,16.4633577 15.123622,16.7203286 14.6888835,16.9916472 C14.572503,18.2765015 14.5143128,18.9189286 14.5143128,18.9189286 C14.5143128,18.9189286 14.5392514,19.4328703 14.1152939,19.664144 C13.8326555,19.8183266 13.4086979,20.0410346 12.8434211,20.3322683 C12.6106601,20.4350566 12.1783896,20.3750967 11.5466096,20.1523887 C10.5989397,19.8183266 4.83810425,17.375751 4.38920798,16.759021 C3.94031171,16.1422909 3.56623149,15.424125 3.56623149,13.1370845" id="Path-7" stroke-width="1.16583089" stroke-linecap="round"></path>
                <path d="M9.35200565,19.2529907 C8.00531683,18.9960198 7.04933403,19.4500017 6.48405725,20.6149362 C6.22818258,21.357079 5.95340134,22.1521003 5.65971353,23" id="Path-9" stroke-width="1.16583089" stroke-linecap="round"></path>
                <path d="M15.5715493,11.0984329 C15.2556594,11.0813016 14.973021,11.2440498 14.7236342,11.5866776" id="Path-10" stroke-width="0.5" stroke-linecap="round"></path>
                <g id="Group-4" transform="translate(12.765099, 6.216329) rotate(4.000000) translate(-12.765099, -6.216329) translate(12.019318, 4.945720)" stroke-width="0.5">
                    <path d="M1.36863485,-3.64477293e-17 C0.7913875,0.436850445 0.335175882,0.864204141 0,1.28206109 C0.223450588,1.56696355 0.536680431,1.85186602 1.31875749,2.0228075 C1.17211804,2.38703574 1.1691254,2.2842474 0.972608587,2.54121825" id="Path-11" stroke-linecap="round" stroke-linejoin="round"></path>
                    <path d="M0.837939706,0.455843942 C1.24759912,0.968668378 1.24759912,1.43400907 0.837939706,1.85186602" id="Path-12"></path>
                </g>
                <path d="M4.35731573,7.55190807 C4.35731573,6.74662516 3.01758049,4.35679625 0.692840447,6.38480719 C-1.30596426,8.71900896 1.55898915,12.5635766 2.52507809,12.5635766 C2.87003881,12.6600914 3.19206846,12.5685541 3.49116703,12.2889646" id="Path-13" stroke-width="0.896792995" stroke-linecap="round"></path>
                <path d="M14.963209,4.52856098 C14.6805706,5.26521075 14.5392514,5.77058675 14.5392514,6.04468899 C14.5392514,6.45584235 15.9358176,8.71718583 16.2600205,9.23112754 C16.5842233,9.74506924 17.3573225,10.3874964 16.8086715,11.1584089 C16.4429041,11.6723506 16.0472679,11.9293215 15.6217628,11.9293215 C15.8810101,12.6659712 16.0937626,13.1028217 16.2600205,13.2398728 C16.5094073,13.4454495 15.3871666,14.9872746 14.6639449,15.11576" id="Path-5" stroke-width="1.16583089" stroke-linecap="round"></path>
                <path d="M3.10899982,8.74288292 C3.34752144,8.95427025 3.36369119,9.20793504 3.15750907,9.5038773 C2.84823589,9.94779068 2.74514482,9.94779068 3.15750907,10.4551203" id="Path-14" stroke-width="0.896792995" stroke-linecap="round"></path>
                <path d="M14.963209,4.52856098 C15.3921918,3.92549326 15.2508726,2.41597293 14.5392514,0" id="Path-3" stroke-width="1.16583089" stroke-linecap="round"></path>
            </g>
            <g id="Group-13" transform="translate(20.000000, 0.000000)" stroke="#202020">
                <line x1="0.5" y1="0" x2="0.5" y2="28" id="Path-4"></line>
            </g>
        </g>
    </g>
</svg>