<?xml version="1.0" encoding="UTF-8"?>
<svg width="40px" height="40px" viewBox="0 0 40 40" version="1.1" xmlns="http://www.w3.org/2000/svg" xmlns:xlink="http://www.w3.org/1999/xlink">
    <title>3D-viewer</title>
    <g id="3D-viewer" stroke="none" stroke-width="1" fill="none" fill-rule="evenodd">
        <g transform="translate(1.000000, 9.000000)">
            <g id="noun_360_4206372" transform="translate(0.000000, 14.360000)" fill="#000000" fill-rule="nonzero">
                <g id="Group">
                    <path d="M37.0328744,0.148138503 C34.449368,2.49271052 28.1376633,4.16487699 20.9435917,4.41260535 C20.6176724,4.42145279 20.3553472,4.73111325 20.362952,5.09385835 C20.3712457,5.45660346 20.6415202,5.73972159 20.9594902,5.73972159 C20.9674395,5.73972159 20.9753887,5.73972159 20.9753887,5.73972159 C28.5271765,5.47429834 34.9660693,3.73135235 37.7801039,1.17444173 C38.03448,0.944408246 38.0742262,0.519731049 37.8675457,0.236612919 C37.6688144,-0.0376577709 37.2951997,-0.0818949789 37.0328744,0.148138503 Z" id="Path"></path>
                    <path d="M18.7416494,4.61609651 L16.4840623,2.39538867 C16.2376355,2.15650774 15.8560715,2.17420263 15.6414417,2.45732076 C15.426812,2.73159145 15.4427105,3.15626864 15.6970865,3.39514957 L16.730489,4.41260535 C13.4394994,4.27989373 10.3233932,3.85521653 7.62064813,3.16511609 C4.63173,2.40423611 2.2787519,1.34254312 0.975074843,0.156985944 C0.720698832,-0.0730475373 0.339134816,-0.0288103293 0.132454307,0.254307802 C-0.0742262022,0.537425933 -0.0344799505,0.962103129 0.219896061,1.19213661 C3.00213368,3.71365746 9.40922946,5.45660346 16.8099815,5.74856903 L15.6970865,6.84565179 C15.4665582,7.06683783 15.426812,7.4649727 15.6096447,7.73039595 C15.8163252,8.0400564 16.2296863,8.09314105 16.4920115,7.83656525 L18.7495986,5.61585741 C18.8767866,5.49199322 18.9562791,5.30619695 18.9483299,5.11155324 C18.9403806,4.91690952 18.8688374,4.73996069 18.7416494,4.61609651 Z" id="Path"></path>
                </g>
            </g>
            <g id="Group-10" transform="translate(4.131663, -0.000000)" stroke="#000000">
                <g id="Group-11">
                    <path d="M11.0916152,3.33066907e-16 C11.6125069,3.33066907e-16 12.0840859,0.211133086 12.4254419,0.5524891 C12.7573887,0.88443587 12.9661926,1.3395255 12.9774515,1.8433558 L12.9774515,1.8433558 L12.1681387,7.41246993 C12.0150335,8.43061981 11.5200027,9.32814233 10.8065698,9.9903783 C10.093137,10.6526142 9.16130201,11.0795635 8.13458838,11.156567 L8.13458838,11.156567 L6.3760274,11.2884591 C4.92147004,11.3975509 3.55007409,10.9312095 2.4929092,10.0762971 C1.43574432,9.22138478 0.692810508,7.97790154 0.495177438,6.53270975 L0.495177438,6.53270975 L0.0254869182,3.09809778 C-0.0765964918,2.35161284 0.133557128,1.63442009 0.555852838,1.07832772 C0.970617108,0.53215298 1.59002406,0.141383575 2.31923921,0.030900523 L2.31923921,0.030900523 L11.0916152,3.33066907e-16 Z" id="Rectangle" stroke-width="1.28"></path>
                    <path d="M27.8508393,3.33066907e-16 C28.371731,3.33066907e-16 28.84331,0.211133086 29.184666,0.5524891 C29.5166127,0.88443587 29.7254166,1.3395255 29.7366755,1.8433558 L29.7366755,1.8433558 L28.9273628,7.41246993 C28.7742575,8.43061981 28.2792268,9.32814233 27.5657939,9.9903783 C26.852361,10.6526142 25.9205261,11.0795635 24.8938124,11.156567 L24.8938124,11.156567 L23.1352515,11.2884591 C21.6806941,11.3975509 20.3092981,10.9312095 19.2521333,10.0762971 C18.1949684,9.22138478 17.4520346,7.97790154 17.2544015,6.53270975 L17.2544015,6.53270975 L16.784711,3.09809778 C16.6826276,2.35161284 16.8927812,1.63442009 17.3150769,1.07832772 C17.7298412,0.53215298 18.3492481,0.141383575 19.0784633,0.030900523 L19.0784633,0.030900523 L27.8508393,3.33066907e-16 Z" id="Rectangle-Copy" stroke-width="1.28" transform="translate(23.247950, 5.652067) scale(-1, 1) translate(-23.247950, -5.652067) "></path>
                    <line x1="13.1841269" y1="2.82666667" x2="16.5525479" y2="2.82666667" id="Path-6" stroke-width="1.68421053"></line>
                </g>
                <path d="M0.592843988,2.82666667 C2.18941487,2.82666667 3.63654421,3.76600504 4.2865497,5.2242682 L4.76307425,6.29333333 L4.76307425,6.29333333" id="Path-15" stroke-width="1.6" stroke-linecap="round"></path>
                <path d="M25.0138959,2.82666667 C26.6104668,2.82666667 28.0575961,3.76600504 28.7076016,5.2242682 L29.1841262,6.29333333 L29.1841262,6.29333333" id="Path-15" stroke-width="1.6" stroke-linecap="round" transform="translate(27.099011, 4.560000) scale(-1, 1) translate(-27.099011, -4.560000) "></path>
            </g>
        </g>
    </g>
</svg>