<?xml version="1.0" encoding="UTF-8"?>
<svg width="40px" height="40px" viewBox="0 0 40 40" version="1.1" xmlns="http://www.w3.org/2000/svg" xmlns:xlink="http://www.w3.org/1999/xlink">
    <title>change-envmap</title>
    <defs>
        <rect id="path-1" x="0" y="0" width="36" height="36" rx="18"></rect>
    </defs>
    <g id="change-envmap" stroke="none" stroke-width="1" fill="none" fill-rule="evenodd">
        <g transform="translate(2.000000, 2.000000)">
            <g id="Group-7">
                <mask id="mask-2" fill="white">
                    <use xlink:href="#path-1"></use>
                </mask>
                <g id="Mask" opacity="0.8"></g>
                <g mask="url(#mask-2)" fill="#000000">
                    <g transform="translate(-4.500000, -1.500000)">
                        <path d="M36,36 L36,39 L33,39 L33,36 L36,36 Z M42,36 L42,39 L39,39 L39,36 L42,36 Z M12,36 L12,39 L9,39 L9,36 L12,36 Z M6,36 L6,39 L3,39 L3,36 L6,36 Z M33,33 L33,36 L30,36 L30,33 L33,33 Z M39,33 L39,36 L36,36 L36,33 L39,33 Z M45,33 L45,36 L42,36 L42,33 L45,33 Z M3,33 L3,36 L0,36 L0,33 L3,33 Z M15,33 L15,36 L12,36 L12,33 L15,33 Z M9,33 L9,36 L6,36 L6,33 L9,33 Z M36,30 L36,33 L33,33 L33,30 L36,30 Z M42,30 L42,33 L39,33 L39,30 L42,30 Z M12,30 L12,33 L9,33 L9,30 L12,30 Z M6,30 L6,33 L3,33 L3,30 L6,30 Z M9,27 L9,30 L6,30 L6,27 L9,27 Z M39,27 L39,30 L36,30 L36,27 L39,27 Z M45,27 L45,30 L42,30 L42,27 L45,27 Z M3,27 L3,30 L0,30 L0,27 L3,27 Z M15.0001365,27.6795792 L15,30 L12,30 L12.000387,27.0766967 L12.000387,27.0766967 L12.2252128,27.166494 C13.0919105,27.4971548 14.0293714,27.6776592 15.0001365,27.6795792 Z M33.0010846,27.0677532 L33,30 L30,30 L30.0009905,27.6774496 C31.0607024,27.6691278 32.0757103,27.4538684 33.0010846,27.0677532 Z M6,24 L6,27 L3,27 L3,24 L6,24 Z M42,24 L42,27 L39,27 L39,24 L42,24 Z M11.825527,27.0011671 L9,27 L9.00002301,24.8487144 C9.75650519,25.7717422 10.725974,26.5101985 11.825527,27.0011671 Z M36.0005695,24.8443913 L36,27 L33.1558141,27.0012326 C34.2665921,26.509492 35.2416209,25.7690409 36.0005695,24.8443913 Z M7.355,21 L7.38617959,21.2101924 C7.53763195,22.2275472 7.8895931,23.1689604 8.39772495,24.0007831 L6,24 L6,21 L7.355,21 Z M45,21 L45,24 L42,24 L42,21 L45,21 Z M3,21 L3,24 L0,24 L0,21 L3,21 Z M39,21 L39,24 L36.6005639,24.0012834 C37.1103974,23.1686187 37.4624882,22.2267399 37.6138204,21.2101924 L37.644,21 L39,21 Z M42,18 L42,21 L39,21 L39,18 L42,18 Z M6,18 L6,21 L3,21 L3,18 L6,18 Z M45,15 L45,18 L42,18 L42,15 L45,15 Z M3,15 L3,18 L0,18 L0,15 L3,15 Z M7.00450646,18.0004565 L6,18 L6,15 L8.13827922,14.9999149 C7.46591257,15.8409931 7.05400952,16.8834871 7.00450646,18.0004565 Z M39,15 L39,18 L37.9862996,18.0003335 C37.9275504,16.8726507 37.5164799,15.8349217 36.8533649,15.0004972 L39,15 Z M42,12 L42,15 L39,15 L39,12 L42,12 Z M6,12 L6,15 L3,15 L3,12 L6,12 Z M24,12 L24.0002737,13.3422948 C23.4929079,13.5447293 23.0324075,13.8292276 22.6354501,14.1788904 L22.505,14.299 L22.4804543,14.2732989 C22.0562518,13.8707765 21.5547013,13.5481034 21.0013313,13.3282947 L21,12 L24,12 Z M36,12 L36.0011039,14.1493783 C35.2806324,13.5782924 34.4021588,13.1886713 33.4291966,13.0523091 C33.2869455,13.0323723 33.143981,13.018121 33.0006556,13.0095783 L33,12 L36,12 Z M12,12 L12.000342,13.0095189 C11.8566824,13.0180549 11.7133845,13.0323261 11.5708034,13.0523091 C10.5965461,13.1888528 9.71914294,13.578434 8.99966444,14.1450021 L9,12 L12,12 Z M30,12 L30,12.999 L27,12.999 L27,12 L30,12 Z M18,12 L18,12.999 L15,12.999 L15,12 L18,12 Z M21,9 L21,12 L18,12 L18,9 L21,9 Z M27,9 L27,12 L24,12 L24,9 L27,9 Z M9,9 L9,12 L6,12 L6,9 L9,9 Z M3,9 L3,12 L0,12 L0,9 L3,9 Z M15,9 L15,12 L12,12 L12,9 L15,9 Z M39,9 L39,12 L36,12 L36,9 L39,9 Z M45,9 L45,12 L42,12 L42,9 L45,9 Z M33,9 L33,12 L30,12 L30,9 L33,9 Z M36,6 L36,9 L33,9 L33,6 L36,6 Z M42,6 L42,9 L39,9 L39,6 L42,6 Z M24,6 L24,9 L21,9 L21,6 L24,6 Z M18,6 L18,9 L15,9 L15,6 L18,6 Z M12,6 L12,9 L9,9 L9,6 L12,6 Z M30,6 L30,9 L27,9 L27,6 L30,6 Z M6,6 L6,9 L3,9 L3,6 L6,6 Z M27,3 L27,6 L24,6 L24,3 L27,3 Z M33,3 L33,6 L30,6 L30,3 L33,3 Z M39,3 L39,6 L36,6 L36,3 L39,3 Z M45,3 L45,6 L42,6 L42,3 L45,3 Z M21,3 L21,6 L18,6 L18,3 L21,3 Z M15,3 L15,6 L12,6 L12,3 L15,3 Z M9,3 L9,6 L6,6 L6,3 L9,3 Z M3,3 L3,6 L0,6 L0,3 L3,3 Z M30,0 L30,3 L27,3 L27,0 L30,0 Z M36,0 L36,3 L33,3 L33,0 L36,0 Z M42,0 L42,3 L39,3 L39,0 L42,0 Z M6,0 L6,3 L3,3 L3,0 L6,0 Z M24,0 L24,3 L21,3 L21,0 L24,0 Z M18,0 L18,3 L15,3 L15,0 L18,0 Z M12,0 L12,3 L9,3 L9,0 L12,0 Z" id="Combined-Shape"></path>
                        <polygon id="Path" points="18 29.4839566 18 32.4079411 23.9919835 32.4076093 23.9915538 34.3918977 27.4375027 30.9459488 23.9915538 27.5 23.9919835 29.4832985"></polygon>
                    </g>
                </g>
            </g>
            <g id="Group-11" transform="translate(2.499467, 11.500000)"></g>
            <g id="Group-10-Copy" transform="translate(5.423371, 14.000000)" fill="#000000" fill-rule="nonzero">
                <g id="Group-11">
                    <path d="M9.4880266,0 C10.5980884,0 11.5023422,0.881168729 11.5394722,1.98219038 L13.6853965,1.98219038 C13.7208388,0.931215168 14.546367,0.0805604897 15.5868078,0.0053996826 L15.7368421,0 L22.4876727,0 C22.6185976,0 22.7493537,0.00939474674 22.8789337,0.0281118655 C24.3195171,0.236196127 25.3350048,1.53091178 25.215294,2.96238079 L25.1964029,3.12810314 L24.8766067,5.34207718 C24.5082184,7.89245729 22.287557,9.7461109 19.7353662,9.67772031 L19.5093512,9.66666667 L18.0671251,9.56426008 C16.2307597,9.43386727 14.7147955,8.09933526 14.3403218,6.31353327 L14.3034528,6.113292 L13.864,3.35 L11.36,3.35 L10.9214159,6.113292 C10.6219274,7.99882927 9.06212258,9.42903791 7.15774364,9.56426008 L5.71551754,9.66666667 C3.0695412,9.85454664 0.727485206,7.96746847 0.34826202,5.34207718 L0.02846577,3.12810314 C-0.187621733,1.63211274 0.849944572,0.244199368 2.34593498,0.0281118655 C2.47551503,0.00939474674 2.60627114,0 2.73719601,0 L9.4880266,0 Z M9.4880266,1.04 L2.73719601,1.04 C2.65602259,1.04 2.5749538,1.04582474 2.49461417,1.05742936 C1.90574076,1.14248885 1.43143501,1.52040672 1.19787636,2.02239748 L1.41834725,2.04085115 C2.72536625,2.18494411 3.88613498,2.96376763 4.51233381,4.1309419 L4.60718339,4.31943269 L4.9541837,5.05645736 C5.10709808,5.38124574 4.96776668,5.76850033 4.6429783,5.9214147 C4.34771615,6.06042777 4.00082902,5.9579154 3.82531198,5.69410961 L3.77802096,5.6102093 L3.43102065,4.87318463 C3.00203814,3.96203072 2.10550233,3.36699035 1.1065103,3.31970919 L1.37757951,5.19339799 C1.66915272,7.21198173 3.42120588,8.68121074 5.43921378,8.63861336 L5.64185684,8.62927855 L7.08408295,8.52687196 C8.4441959,8.4302959 9.56891284,7.44904905 9.85984351,6.13180449 L9.89429158,5.95014913 L10.4881214,2.21148121 C10.4964663,2.15894283 10.5006582,2.10582856 10.5006582,2.05263158 C10.5006582,1.53065467 10.105722,1.10092004 9.59836397,1.04594198 L9.4880266,1.04 Z M22.4876727,1.04 L15.7368421,1.04 L15.6265047,1.04594198 C15.1191467,1.10092004 14.7242105,1.53065467 14.7242105,2.05263158 L14.7273496,2.13230337 L14.7273496,2.13230337 L14.7367474,2.21148121 L15.3305771,5.95014913 L15.3650252,6.13180449 C15.6427317,7.3891743 16.6801485,8.34039743 17.9568311,8.50827053 L18.1407858,8.52687196 L19.5830119,8.62927855 L19.7856549,8.63861336 C21.7363959,8.67979082 23.4386169,7.30825052 23.8133079,5.39338953 L23.8472892,5.19339799 L24.1179584,3.31816642 C23.1670168,3.34974095 22.3042364,3.87778405 21.8421194,4.70402023 L21.7551307,4.87318463 L21.4081304,5.6102093 L21.3608394,5.69410961 C21.1853224,5.9579154 20.8384352,6.06042777 20.5431731,5.9214147 C20.2479109,5.78240163 20.105919,5.44971897 20.1974293,5.14636177 L20.2319677,5.05645736 L20.578968,4.31943269 L20.6738176,4.1309419 C21.3348052,2.89892462 22.5914093,2.09960677 23.9869282,2.02275503 L24.0265347,2.02141463 C23.7928144,1.51991348 23.3187436,1.14243333 22.7302545,1.05742936 L22.6092763,1.04436295 L22.6092763,1.04436295 L22.4876727,1.04 Z" id="Shape"></path>
                </g>
            </g>
        </g>
    </g>
</svg>