<?xml version="1.0" encoding="UTF-8"?>
<svg width="40px" height="40px" viewBox="0 0 40 40" version="1.1" xmlns="http://www.w3.org/2000/svg" xmlns:xlink="http://www.w3.org/1999/xlink">
    <title>full-screen</title>
    <g id="full-screen" stroke="none" stroke-width="1" fill="none" fill-rule="evenodd">
        <g transform="translate(10.000000, 9.000000)" fill="#000000" fill-rule="nonzero">
            <path d="M5,11 L5,12.259 L1.26,12.26 L1.26,20.74 L9.66,20.74 L9.66,16 L10.92,16 L10.92,21.22 C10.92,21.6507821 10.5707821,22 10.14,22 L0.78,22 C0.349217895,22 0,21.6507821 0,21.22 L0,11.78 C0,11.3492179 0.349217895,11 0.78,11 L5,11 Z" id="Combined-Shape"></path>
            <path d="M20.2930435,0 C20.6834848,0 21,0.316515218 21,0.706956527 L21,15.3699665 C21,15.7604079 20.6834848,16.0769231 20.2930435,16.0769231 L5.74695653,16.0769231 C5.35651522,16.0769231 5.04,15.7604079 5.04,15.3699665 L5.04,0.706956527 C5.04,0.316515218 5.35651522,0 5.74695653,0 L20.2930435,0 Z M19.739,1.26 L6.299,1.26 L6.299,14.816 L19.739,14.816 L19.739,1.26 Z" id="Rectangle-Copy-2"></path>
            <path d="M16.9330435,2.75461538 C17.6289628,2.75461538 18.19921,3.28780392 18.2638899,3.96765472 L18.27,4.09675108 L18.27,8.88461538 C18.27,9.23255478 17.9879394,9.51461538 17.64,9.51461538 C17.3236915,9.51461538 17.0618282,9.28150744 17.0168308,8.97771217 L17.01,8.88461538 L17.0093685,4.97261538 L12.2202753,9.79788406 C11.9588025,10.0612724 11.5333184,10.0628253 11.2699301,9.80135247 C11.0328806,9.56602695 11.0079178,9.19785233 11.1959094,8.93456055 L11.2664617,8.85100728 L16.0663685,4.01461538 L12.18,4.01461538 C11.8320606,4.01461538 11.55,3.73255478 11.55,3.38461538 C11.55,3.06830685 11.7831079,2.80644358 12.0869032,2.7614462 L12.18,2.75461538 L16.9330435,2.75461538 Z" id="Path"></path>
        </g>
    </g>
</svg>