<?xml version="1.0" encoding="UTF-8"?>
<svg width="40px" height="40px" viewBox="0 0 40 40" version="1.1" xmlns="http://www.w3.org/2000/svg" xmlns:xlink="http://www.w3.org/1999/xlink">
    <title>min-screen</title>
    <g id="min-screen" stroke="none" stroke-width="1" fill="none" fill-rule="evenodd">
        <g transform="translate(10.000000, 9.000000)" fill="#000000" fill-rule="nonzero">
            <path d="M10.14,11 C10.5707821,11 10.92,11.3492179 10.92,11.78 L10.92,21.22 C10.92,21.6507821 10.5707821,22 10.14,22 L0.78,22 C0.349217895,22 0,21.6507821 0,21.22 L0,11.78 C0,11.3492179 0.349217895,11 0.78,11 L10.14,11 Z M9.66,12.26 L1.26,12.26 L1.26,20.74 L9.66,20.74 L9.66,12.26 Z" id="Rectangle"></path>
            <path d="M20.2930435,0 C20.6834848,0 21,0.316515218 21,0.706956527 L21,15.3699665 C21,15.7604079 20.6834848,16.0769231 20.2930435,16.0769231 L11,16.076 L11,14.815 L19.739,14.816 L19.739,1.26 L6.299,1.26 L6.299,11 L5.04,11 L5.04,0.706956527 C5.04,0.316515218 5.35651522,0 5.74695653,0 L20.2930435,0 Z" id="Combined-Shape"></path>
            <g id="Group-3" transform="translate(4.712684, 17.333530) rotate(180.000000) translate(-4.712684, -17.333530) translate(2.113368, 14.712615)">
                <path d="M3.86167507,0 C4.55759437,0 5.1278416,0.533188533 5.19252148,1.21303934 L5.1986316,1.3421357 L5.1986316,4.13 C5.1986316,4.47793939 4.91657099,4.76 4.5686316,4.76 C4.25232306,4.76 3.9904598,4.52689206 3.94546241,4.22309678 L3.9386316,4.13 L3.938,2.219 L1.15002927,5.04213537 C0.889182377,5.3061436 0.463703229,5.30870637 0.199694995,5.04785948 C-0.0379124149,4.81309727 -0.0637490018,4.44498294 0.12361714,4.1812457 L0.193970883,4.0975252 L2.996,1.26 L1.1086316,1.26 C0.760692203,1.26 0.478631596,0.977939392 0.478631596,0.63 C0.478631596,0.313691461 0.711739536,0.0518281996 1.01553481,0.0068308176 L1.1086316,0 L3.86167507,0 Z" id="Combined-Shape"></path>
            </g>
        </g>
    </g>
</svg>