<?xml version="1.0" encoding="UTF-8"?>
<svg width="40px" height="40px" viewBox="0 0 40 40" version="1.1" xmlns="http://www.w3.org/2000/svg" xmlns:xlink="http://www.w3.org/1999/xlink">
    <title>position</title>
    <g id="position" stroke="none" stroke-width="1" fill="none" fill-rule="evenodd">
        <g id="reset-position" transform="translate(6.000000, 10.000000)" fill="#000000" fill-rule="nonzero">
            <path d="M20.25,3.23059082 C24.8063492,3.23059082 28.5,6.92424163 28.5,11.4805908 C28.5,15.9525632 24.9418844,19.5934931 20.502225,19.7268087 L20.25,19.7305908 L8.25,19.7305908 C3.69365081,19.7305908 0,16.03694 0,11.4805908 C0,9.75396384 0.532453347,8.10530289 1.50815666,6.7245168 L1.54097278,6.68062857 C1.80849645,7.09680256 2.13605783,7.4707155 2.51142328,7.7901338 L2.73317745,7.59015186 C1.93495747,8.71976885 1.5,10.0665486 1.5,11.4805908 C1.5,15.1291954 4.39484695,18.1016722 8.01302843,18.2265089 L8.25,18.2305908 L20.25,18.2305908 C23.9779221,18.2305908 27,15.2085129 27,11.4805908 C27,7.83198625 24.105153,4.85950941 20.4869716,4.73467274 L20.25,4.73059082 L14.25,4.73059082 C13.8357864,4.73059082 13.5,4.39480438 13.5,3.98059082 C13.5,3.60089505 13.7821539,3.28709986 14.1482294,3.23743744 L14.25,3.23059082 L20.25,3.23059082 Z" id="Combined-Shape"></path>
            <circle id="Oval" cx="6.75" cy="3.98059082" r="3"></circle>
            <polygon id="Path-8" points="11.3582764 3.96162896 16.7420449 0 16.7420449 8"></polygon>
        </g>
    </g>
</svg>